<svg width="157" height="35" viewBox="0 0 157 35" fill="none" xmlns="http://www.w3.org/2000/svg">
<path d="M0.84446 34V1.27273H13.7564C16.2386 1.27273 18.3533 1.7468 20.1005 2.69496C21.8477 3.63246 23.1793 4.9375 24.0955 6.61008C25.0224 8.27202 25.4858 10.1896 25.4858 12.3629C25.4858 14.5362 25.017 16.4538 24.0795 18.1158C23.142 19.7777 21.7837 21.0721 20.0046 21.9989C18.2362 22.9258 16.0948 23.3892 13.5806 23.3892H5.35085V17.8441H12.462C13.7937 17.8441 14.891 17.6151 15.7539 17.157C16.6275 16.6882 17.2773 16.0437 17.7035 15.2234C18.1403 14.3924 18.3587 13.4389 18.3587 12.3629C18.3587 11.2763 18.1403 10.3281 17.7035 9.51846C17.2773 8.69815 16.6275 8.06427 15.7539 7.61683C14.8803 7.15874 13.7724 6.92969 12.43 6.92969H7.76385V34H0.84446ZM40.6429 34.4794C38.1181 34.4794 35.9448 33.968 34.123 32.9453C32.312 31.9119 30.9164 30.4524 29.9363 28.5668C28.9561 26.6705 28.4661 24.4279 28.4661 21.8391C28.4661 19.3143 28.9561 17.0984 29.9363 15.1914C30.9164 13.2844 32.296 11.7983 34.0751 10.733C35.8649 9.66761 37.9636 9.13494 40.3713 9.13494C41.9906 9.13494 43.498 9.39595 44.8936 9.91797C46.2999 10.4293 47.525 11.2017 48.5691 12.2351C49.6238 13.2685 50.4441 14.5682 51.03 16.1342C51.6159 17.6896 51.9089 19.5114 51.9089 21.5994V23.4691H31.1827V19.2504H45.5009C45.5009 18.2702 45.2878 17.402 44.8617 16.6456C44.4355 15.8892 43.8443 15.2979 43.0879 14.8718C42.3422 14.435 41.4739 14.2166 40.4831 14.2166C39.4498 14.2166 38.5336 14.4563 37.7346 14.9357C36.9462 15.4045 36.3283 16.0384 35.8809 16.8374C35.4334 17.6257 35.2044 18.5046 35.1937 19.4741V23.4851C35.1937 24.6996 35.4174 25.7489 35.8649 26.6332C36.323 27.5174 36.9675 28.1992 37.7985 28.6786C38.6294 29.158 39.6149 29.3977 40.7548 29.3977C41.5112 29.3977 42.2037 29.2912 42.8322 29.0781C43.4608 28.8651 43.9988 28.5455 44.4462 28.1193C44.8936 27.6932 45.2346 27.1712 45.4689 26.5533L51.7651 26.9688C51.4455 28.4815 50.7903 29.8026 49.7995 30.9318C48.8194 32.0504 47.5517 32.924 45.9963 33.5526C44.4515 34.1705 42.6671 34.4794 40.6429 34.4794ZM69.4071 9.45454V14.5682H54.6255V9.45454H69.4071ZM57.9814 3.57386H64.7889V26.4574C64.7889 27.0859 64.8848 27.576 65.0765 27.9276C65.2683 28.2685 65.5346 28.5082 65.8755 28.6467C66.2271 28.7852 66.6319 28.8544 67.09 28.8544C67.4096 28.8544 67.7292 28.8278 68.0488 28.7745C68.3684 28.7106 68.6135 28.6626 68.7839 28.6307L69.8546 33.6964C69.5137 33.8029 69.0343 33.9254 68.4164 34.0639C67.7985 34.2131 67.0474 34.3036 66.1632 34.3356C64.5225 34.3995 63.0843 34.1811 61.8485 33.6804C60.6234 33.1797 59.6699 32.402 58.9881 31.3473C58.3063 30.2926 57.9707 28.9609 57.9814 27.3523V3.57386ZM93.9566 16.4538L87.7243 16.8374C87.6178 16.3047 87.3888 15.8253 87.0372 15.3991C86.6856 14.9624 86.2222 14.6161 85.6469 14.3604C85.0823 14.0941 84.4058 13.9609 83.6175 13.9609C82.5628 13.9609 81.6732 14.1847 80.9488 14.6321C80.2243 15.0689 79.8621 15.6548 79.8621 16.3899C79.8621 16.9759 80.0965 17.4712 80.5653 17.8761C81.034 18.2809 81.8383 18.6058 82.9783 18.8509L87.4207 19.7457C89.8071 20.2358 91.5862 21.0241 92.7581 22.1108C93.93 23.1974 94.5159 24.625 94.5159 26.3935C94.5159 28.0021 94.0418 29.4137 93.0937 30.6282C92.1562 31.8427 90.8671 32.7908 89.2265 33.4727C87.5965 34.1438 85.7162 34.4794 83.5855 34.4794C80.3362 34.4794 77.7474 33.8029 75.8192 32.4499C73.9015 31.0863 72.7776 29.2326 72.4474 26.8888L79.143 26.5373C79.3454 27.5281 79.8355 28.2844 80.6132 28.8065C81.3909 29.3178 82.387 29.5735 83.6015 29.5735C84.7947 29.5735 85.7535 29.3445 86.4779 28.8864C87.213 28.4176 87.5858 27.8157 87.5965 27.0806C87.5858 26.4627 87.3248 25.9567 86.8135 25.5625C86.3021 25.1577 85.5138 24.8487 84.4484 24.6357L80.1977 23.7887C77.8007 23.3093 76.0162 22.4783 74.8444 21.2958C73.6831 20.1133 73.1025 18.6058 73.1025 16.7734C73.1025 15.1967 73.5287 13.8384 74.3809 12.6985C75.2439 11.5586 76.453 10.6797 78.0084 10.0618C79.5745 9.44389 81.4069 9.13494 83.5056 9.13494C86.6057 9.13494 89.0454 9.79013 90.8245 11.1005C92.6143 12.4109 93.6583 14.1953 93.9566 16.4538Z" fill="#1774FE"/>
<path d="M129.005 17.6364C129.005 21.2053 128.328 24.2415 126.975 26.745C125.633 29.2486 123.801 31.1609 121.478 32.4819C119.167 33.7923 116.567 34.4474 113.68 34.4474C110.772 34.4474 108.162 33.7869 105.85 32.4659C103.538 31.1449 101.711 29.2326 100.369 26.729C99.0263 24.2255 98.3551 21.1946 98.3551 17.6364C98.3551 14.0675 99.0263 11.0312 100.369 8.5277C101.711 6.02415 103.538 4.11719 105.85 2.80682C108.162 1.48579 110.772 0.825283 113.68 0.825283C116.567 0.825283 119.167 1.48579 121.478 2.80682C123.801 4.11719 125.633 6.02415 126.975 8.5277C128.328 11.0312 129.005 14.0675 129.005 17.6364ZM121.99 17.6364C121.99 15.3246 121.643 13.375 120.951 11.7876C120.269 10.2003 119.305 8.99645 118.059 8.17614C116.812 7.35582 115.353 6.94567 113.68 6.94567C112.007 6.94567 110.548 7.35582 109.301 8.17614C108.055 8.99645 107.086 10.2003 106.393 11.7876C105.711 13.375 105.37 15.3246 105.37 17.6364C105.37 19.9482 105.711 21.8977 106.393 23.4851C107.086 25.0724 108.055 26.2763 109.301 27.0966C110.548 27.9169 112.007 28.3271 113.68 28.3271C115.353 28.3271 116.812 27.9169 118.059 27.0966C119.305 26.2763 120.269 25.0724 120.951 23.4851C121.643 21.8977 121.99 19.9482 121.99 17.6364ZM140.81 19.8097V34H134.003V9.45454H140.491V13.7852H140.778C141.322 12.3576 142.233 11.2283 143.511 10.3974C144.789 9.55575 146.339 9.13494 148.161 9.13494C149.866 9.13494 151.352 9.50781 152.62 10.2536C153.887 10.9993 154.873 12.0646 155.576 13.4496C156.279 14.8239 156.631 16.4645 156.631 18.3714V34H149.823V19.5859C149.834 18.0838 149.45 16.9119 148.672 16.0703C147.895 15.218 146.824 14.7919 145.46 14.7919C144.544 14.7919 143.735 14.989 143.032 15.3832C142.339 15.7773 141.796 16.3526 141.402 17.109C141.018 17.8548 140.821 18.755 140.81 19.8097Z" fill="#BC00A9"/>
</svg>
